# xmcd
#
# Track frame offsets:
#	182
#	11182
#	21732
#	37085
#	47057
#	57377
#	71225
#	83825
#	95587
#	108592
#	123142
#	135362
#	146487
#	158927
#	169717
#	182802
#
# Disc length: 2591
#
# Revision: 3
# Processed by: cddbd v1.5.1PL0 Copyright (c) Steve Scherf et al.
# Submitted via: ExactAudioCopy v0.90b4
# Normalized: r2:DSETVAR1
#
DISCID=e70a1d10
DTITLE=Various Artist - Country Music Collection - Vol 2
DYEAR=1993
DGENRE=Country
TTITLE0=Hank Locklin - Send Me The Pillow
TTITLE1=Ricky Nelson - Travelin' Man
TTITLE2=Kenny Rogers - For The Good Times
TTITLE3=Lynn Anderson - What A Man My Man Is
TTITLE4=Loretta Lynn - You're Looking At Country (Live)
TTITLE5=Willie Nelson - Home Is Where You're Happy
TTITLE6=Carl Perkins - Take Me Back
TTITLE7=Charlie Pride - Kaw Liga (Live)
TTITLE8=George Jones - Things Have Gone To Pieces
TTITLE9=Anne Murray - A Song For David
TTITLE10=Susan Raye - L.A. International Airport
TTITLE11=Brenda Lee - That's All You Gotta Do (Live)
TTITLE12=Jeanne Pruett - Satin Sheets
TTITLE13=Johnny Cash - Rock Island Line
TTITLE14=Patsy Cline - Walkin' After Midnight
TTITLE15=Brenda Lee - Silver Threads (And Golden Needles)
EXTD=
EXTT0=
EXTT1=
EXTT2=
EXTT3=
EXTT4=
EXTT5=
EXTT6=
EXTT7=
EXTT8=
EXTT9=
EXTT10=
EXTT11=
EXTT12=
EXTT13=
EXTT14=
EXTT15=
PLAYORDER=
